<svg width="316" height="197" viewBox="0 0 316 197" fill="none" xmlns="http://www.w3.org/2000/svg">
<path d="M0 25.5C0 11.4167 11.4167 0 25.5 0H217.5C231.583 0 243 11.4167 243 25.5V25.5C243 39.5833 231.583 51 217.5 51H25.5C11.4167 51 0 39.5833 0 25.5V25.5Z" fill="url(#paint0_linear_0_1)"/>
<path d="M0 98.5C0 84.4167 11.4167 73 25.5 73H92.5C106.583 73 118 84.4167 118 98.5V98.5C118 112.583 106.583 124 92.5 124H25.5C11.4167 124 0 112.583 0 98.5V98.5Z" fill="url(#paint1_linear_0_1)"/>
<path d="M55 171.5C55 157.417 66.4167 146 80.5 146H217.5C231.583 146 243 157.417 243 171.5V171.5C243 185.583 231.583 197 217.5 197H80.5C66.4167 197 55 185.583 55 171.5V171.5Z" fill="url(#paint2_linear_0_1)"/>
<path d="M262 25.5C262 11.4167 273.417 0 287.5 0H290.5C304.583 0 316 11.4167 316 25.5V25.5C316 39.5833 304.583 51 290.5 51H287.5C273.417 51 262 39.5833 262 25.5V25.5Z" fill="url(#paint3_linear_0_1)"/>
<defs>
<linearGradient id="paint0_linear_0_1" x1="243" y1="25" x2="15" y2="25" gradientUnits="userSpaceOnUse">
<stop stop-color="#F84413"/>
<stop offset="1" stop-color="#E50F47"/>
</linearGradient>
<linearGradient id="paint1_linear_0_1" x1="118" y1="98" x2="7.28395" y2="98" gradientUnits="userSpaceOnUse">
<stop stop-color="#F84413"/>
<stop offset="1" stop-color="#E50F47"/>
</linearGradient>
<linearGradient id="paint2_linear_0_1" x1="243" y1="171" x2="66.6049" y2="171" gradientUnits="userSpaceOnUse">
<stop stop-color="#F84413"/>
<stop offset="1" stop-color="#E50F47"/>
</linearGradient>
<linearGradient id="paint3_linear_0_1" x1="316" y1="25" x2="270" y2="25" gradientUnits="userSpaceOnUse">
<stop stop-color="#FF5127"/>
<stop offset="1" stop-color="#F74217"/>
</linearGradient>
</defs>
</svg>
